PathFileType	4	(X/Y/Z)	C:\Users\WrightLab\Desktop\Jo\P2_Trial36.trc
DataRate	CameraRate	NumFrames	NumMarkers	Units	OrigDataRate	OrigDataStartFrame	OrigNumFrames
100.00	100.00	       73	19	mm	100.00	1	       641
Frame#	Time	Headset_Front			Headset_Back			Headset_Left			Headset_Right			Left_Shoulder			Right_Shoulder			Sternum			C7			Left Elbow			Right Elbow			Left Wrist			Right Wrist			Left ASIS			Right ASIS			S2			Left Knee			Right Knee			Left Ankle			Right Ankle			
		X1	Y1	Z1	X2	Y2	Z2	X3	Y3	Z3	X4	Y4	Z4	X5	Y5	Z5	X6	Y6	Z6	X7	Y7	Z7	X8	Y8	Z8	X9	Y9	Z9	X10	Y10	Z10	X11	Y11	Z11	X12	Y12	Z12	X13	Y13	Z13	X14	Y14	Z14	X15	Y15	Z15	X16	Y16	Z16	X17	Y17	Z17	X18	Y18	Z18	X19	Y19	Z19	

1	0.000																																											-264.07028	913.57452	-1495.00854	-63.31956	426.55991	-1329.59399										
2	0.010																																											-265.58566	914.02795	-1496.65601	-63.33018	426.87061	-1328.91016										
3	0.020																																											-266.98029	913.21033	-1495.74255	-63.68827	427.64667	-1327.69910										
4	0.030																																											-268.64828	913.52979	-1497.16125	-65.04742	428.05042	-1326.53552										
5	0.040																																											-270.10468	913.39661	-1497.69592	-65.84661	429.14270	-1324.61414										
6	0.050																																											-271.74686	913.25464	-1498.02832	-67.44038	428.80783	-1322.11694										
7	0.060																																											-273.27084	913.59784	-1499.42920	-67.81129	429.90201	-1320.21643										
8	0.070																																											-274.77875	913.08197	-1498.88013	-68.53327	428.99377	-1318.04797										
9	0.080																																											-276.37708	913.50519	-1500.41772	-71.17742	429.11755	-1312.67725										
10	0.090																																											-277.91837	913.25378	-1500.93481	-72.55492	429.11493	-1311.05664										
11	0.100																																											-279.46536	913.09442	-1501.47266	-72.80962	430.15247	-1309.12268										
12	0.110																																											-280.92142	913.25989	-1502.45300	-74.37904	430.75174	-1305.64294										
13	0.120																																											-282.41714	912.71606	-1502.37622	-76.55756	431.18143	-1303.44165										
14	0.130																																											-283.89136	912.91052	-1503.70569	-77.62597	431.54260	-1299.27966										
15	0.140																																											-285.24677	912.53790	-1503.25000	-78.40233	430.97516	-1295.19727										
16	0.150																																											-286.74243	912.54156	-1504.42371	-80.34274	430.93835	-1291.11267										
17	0.160																																											-288.07358	912.37177	-1504.15259	-82.79070	431.34882	-1284.79236										
18	0.170																																											-289.48999	912.39655	-1504.70215	-85.51154	432.16034	-1277.95850										
19	0.180																																											-290.84705	912.34717	-1504.43665	-88.56287	432.45908	-1271.47302										
20	0.190																																											-292.31555	912.52258	-1505.02258	-93.19545	433.54697	-1263.63049										
21	0.200																																											-293.66296	912.27332	-1504.43713	-97.29731	432.39914	-1254.41040										
22	0.210																																											-295.02875	912.11053	-1503.65198	-101.32999	433.66132	-1245.20862										
23	0.220																																											-296.32947	912.75507	-1504.57312	-106.36498	434.27502	-1237.51233										
24	0.230																																											-297.60205	912.42346	-1503.42493	-112.08554	435.06458	-1228.26648										
25	0.240																																											-298.65457	912.27216	-1502.65356	-117.07268	436.01450	-1221.36426										
26	0.250																																											-299.76630	912.35455	-1502.02417	-122.00772	437.18591	-1214.43054										
27	0.260																																											-300.68460	912.45508	-1501.46765	-128.20807	438.46127	-1208.36719										
28	0.270																																											-301.44800	912.60223	-1500.81079	-133.40054	439.29727	-1199.80310										
29	0.280																																											-302.08026	912.41901	-1499.61853	-137.97777	439.60870	-1195.36023										
30	0.290																																											-302.62106	912.74310	-1498.80920	-143.98730	439.93213	-1189.07397										
31	0.300																																											-303.09854	912.73199	-1497.83057	-148.60451	442.03299	-1183.15369										
32	0.310																																											-303.49161	912.68207	-1496.82373	-153.96455	442.74585	-1177.74939										
33	0.320																																											-303.83368	912.87323	-1495.78162	-159.09019	443.68433	-1171.82471										
34	0.330																																											-304.04904	912.59973	-1494.02563	-163.99246	444.62720	-1166.79382										
35	0.340																																											-304.21829	912.79730	-1492.67920	-169.77209	446.57431	-1161.75378										
36	0.350																																											-304.56622	912.80707	-1491.32214	-173.69885	447.38766	-1157.98145										
37	0.360																																											-304.74777	912.87659	-1489.49548	-177.90431	447.89548	-1156.24646										
38	0.370																																											-305.05786	912.90436	-1487.65759	-182.30173	448.78873	-1153.90137										
39	0.380																																											-305.33127	912.83264	-1485.56018	-187.01936	448.95239	-1150.09058										
40	0.390																																											-305.68158	913.29102	-1484.24060	-191.98718	448.48434	-1148.44153										
41	0.400																																											-305.91299	913.39911	-1481.88806	-196.49648	449.37085	-1145.67993										
42	0.410																																											-306.40619	913.89136	-1480.35205	-201.81381	449.49457	-1144.61951										
43	0.420																																											-306.88708	914.00696	-1477.99939	-207.87485	450.16141	-1142.09180										
44	0.430																																											-307.37915	914.13605	-1475.43518	-214.10556	451.31378	-1140.07886										
45	0.440																																											-307.90781	914.52765	-1473.34619	-219.90733	451.61331	-1136.72388										
46	0.450																																											-308.41833	915.09863	-1471.32727	-226.02298	452.51471	-1134.19421										
47	0.460																																											-308.97763	915.16718	-1468.44275	-233.58066	453.90427	-1132.39026										
48	0.470																																											-309.65063	915.67242	-1466.27344	-238.94037	454.73920	-1128.18762										
49	0.480																																											-310.30011	915.98431	-1463.36169	-246.02116	455.54907	-1123.13733										
50	0.490																																											-310.92096	916.42444	-1460.93555	-252.26077	456.26547	-1119.52319										
51	0.500																																											-311.68097	916.43561	-1457.67004	-258.34171	456.92413	-1115.79358										
52	0.510																																											-312.48907	916.32587	-1454.13135	-263.50031	458.12247	-1112.33801										
53	0.520																																											-313.33478	916.68146	-1451.32446	-268.96130	458.95972	-1109.63647										
54	0.530																																											-314.28543	916.82764	-1448.11096	-274.50021	459.93442	-1106.46509										
55	0.540																																											-315.28607	916.84918	-1444.38538	-280.19022	459.97821	-1100.92297										
56	0.550																																					-348.16611	1007.15137	-1184.33276				-316.28580	916.74017	-1440.76514	-285.03729	460.43573	-1096.98022										
57	0.560																																					-350.85040	1006.11200	-1180.61292				-317.52023	916.50543	-1436.94873	-290.11594	460.33536	-1093.48584										
58	0.570																																					-353.57162	1005.63684	-1171.17834				-318.60049	915.98572	-1432.33923	-294.27521	460.59244	-1089.37354										
59	0.580																									-134.87825	1178.64270	-1200.48218										-356.87552	1004.67773	-1167.84460				-320.01660	915.93152	-1428.66797	-298.94949	460.12357	-1085.79712										
60	0.590																									-138.46748	1178.26355	-1193.39136										-359.50333	1004.46863	-1160.20935				-321.20203	915.98785	-1424.79102	-302.16489	459.92032	-1082.30945										
61	0.600																									-142.76044	1177.54578	-1183.93860										-363.48535	1002.99103	-1158.01929				-322.48135	915.63129	-1420.29810	-305.15323	458.50702	-1078.07837										
62	0.610																-584.54590	1378.95569	-1323.39075							-147.38063	1176.71411	-1175.39063										-366.68756	1002.44690	-1152.40308				-323.60065	915.28522	-1415.15686	-309.24878	457.30923	-1073.90442										
63	0.620																-587.42999	1376.45862	-1316.65002							-151.03003	1174.27856	-1174.30640										-370.43756	1002.12085	-1147.32739				-324.95428	915.17358	-1410.81653	-312.25851	456.59940	-1070.70569										
64	0.630																-590.36530	1376.75928	-1316.89136							-155.55211	1172.24695	-1167.12537										-374.92236	999.87146	-1146.53601				-326.20679	914.57867	-1405.36328	-316.07980	456.36511	-1065.85327										
65	0.640																-593.24927	1375.17053	-1312.01501							-159.81827	1170.76257	-1158.02698										-378.75821	1000.24634	-1138.36536				-327.38708	914.28351	-1399.97974	-319.65903	454.99915	-1060.20813										
66	0.650																-596.10956	1373.65173	-1306.89258							-165.41931	1169.55396	-1150.21411										-383.28549	998.91174	-1133.32263				-328.56494	913.95331	-1394.81372	-322.30634	453.83749	-1056.08069										
67	0.660																-599.67804	1372.85193	-1301.97791							-171.32697	1168.39185	-1143.98535										-387.96414	996.96783	-1127.18774				-329.90988	913.24811	-1388.62634	-325.83896	451.96152	-1051.87573										
68	0.670																-602.19067	1371.99951	-1297.68689							-175.82721	1166.79919	-1133.94287										-392.34879	996.08435	-1121.41541				-331.07986	912.84845	-1382.60352	-329.74524	449.71603	-1045.96765										
69	0.680																-605.29419	1371.50562	-1292.92090							-181.56346	1164.38293	-1122.94971										-396.87997	994.22296	-1117.91187				-332.56989	912.55054	-1377.02856	-334.63959	449.27509	-1038.26221										
70	0.690																-607.99677	1370.82739	-1287.65955							-187.01131	1162.40869	-1120.43457										-401.73950	993.15454	-1112.98926				-333.96466	911.84259	-1370.29553	-338.95352	448.53839	-1031.54431										
71	0.700																-610.44275	1369.19336	-1279.64246							-192.15056	1161.40247	-1107.42590										-406.41629	991.01971	-1105.19446				-335.52496	910.86639	-1363.23132	-345.03522	447.26917	-1025.70667										
72	0.710	-447.44794	1423.72705	-985.28650													-613.27777	1369.61853	-1275.90735							-197.30727	1159.75183	-1096.97144										-412.08496	989.92993	-1099.04114				-337.20889	909.79370	-1356.04004	-350.55975	446.06058	-1017.59589										
73	0.720	-447.16705	1422.59131	-977.59558													-615.63721	1369.66309	-1271.55872							-203.54404	1156.07117	-1094.19080							-689.42523	811.98328	-1221.10120	-417.19736	988.25146	-1092.26892				-339.09555	909.12744	-1349.58447	-355.11160	444.73694	-1010.86176										
